HIERARCHY
ROOT Hips
{
    OFFSET 0.000000 0.000000 0.000000
    CHANNELS 6 Xposition Yposition Zposition Zrotation Xrotation Yrotation
    JOINT Spine
    {
        OFFSET -0.000000 7.236184 0.000000
        CHANNELS 3 Zrotation Xrotation Yrotation
        JOINT Spine1
        {
            OFFSET -0.000000 20.420147 0.000000
            CHANNELS 3 Zrotation Xrotation Yrotation
            JOINT Neck
            {
                OFFSET -0.000000 20.336288 1.848754
                CHANNELS 3 Zrotation Xrotation Yrotation
                JOINT Head
                {
                    OFFSET -0.000000 12.354461 -1.764923
                    CHANNELS 3 Zrotation Xrotation Yrotation
                    End Site
                    {
                        OFFSET -0.000000 22.061537 0.000000
                    }
                }
            }
            JOINT LeftShoulder
            {
                OFFSET 3.573296 18.396038 -0.314103
                CHANNELS 3 Zrotation Xrotation Yrotation
                JOINT LeftArm
                {
                    OFFSET 10.880760 0.000000 0.000000
                    CHANNELS 3 Zrotation Xrotation Yrotation
                    JOINT LeftForeArm
                    {
                        OFFSET 27.185530 0.000000 0.000000
                        CHANNELS 3 Zrotation Xrotation Yrotation
                        JOINT LeftHand
                        {
                            OFFSET 27.825975 0.000000 0.000000
                            CHANNELS 3 Zrotation Xrotation Yrotation
                            End Site
                            {
                                OFFSET 13.236923 0.000000 0.000000
                            }
                        }
                    }
                }
            }
            JOINT RightShoulder
            {
                OFFSET -3.474926 18.396038 -0.314103
                CHANNELS 3 Zrotation Xrotation Yrotation
                JOINT RightArm
                {
                    OFFSET -10.880760 0.000000 0.000000
                    CHANNELS 3 Zrotation Xrotation Yrotation
                    JOINT RightForeArm
                    {
                        OFFSET -27.185530 0.000000 0.000000
                        CHANNELS 3 Zrotation Xrotation Yrotation
                        JOINT RightHand
                        {
                            OFFSET -27.825975 0.000000 0.000000
                            CHANNELS 3 Zrotation Xrotation Yrotation
                            End Site
                            {
                                OFFSET -13.236923 0.000000 0.000000
                            }
                        }
                    }
                }
            }
        }
    }
    JOINT LeftUpLeg
    {
        OFFSET 8.824615 0.000000 0.000000
        CHANNELS 3 Zrotation Xrotation Yrotation
        JOINT LeftLeg
        {
            OFFSET -0.000000 -35.111282 0.000000
            CHANNELS 3 Zrotation Xrotation Yrotation
            JOINT LeftFoot
            {
                OFFSET -0.000000 -42.324711 0.000000
                CHANNELS 3 Zrotation Xrotation Yrotation
                JOINT LeftToeBase
                {
                    OFFSET -0.000000 -5.735999 13.236923
                    CHANNELS 3 Zrotation Xrotation Yrotation
                    End Site
                    {
                        OFFSET -0.000000 0.000000 3.529846
                    }
                }
            }
        }
    }
    JOINT RightUpLeg
    {
        OFFSET -8.824615 0.000000 0.000000
        CHANNELS 3 Zrotation Xrotation Yrotation
        JOINT RightLeg
        {
            OFFSET -0.000000 -35.111282 0.000000
            CHANNELS 3 Zrotation Xrotation Yrotation
            JOINT RightFoot
            {
                OFFSET -0.000000 -42.324711 0.000000
                CHANNELS 3 Zrotation Xrotation Yrotation
                JOINT RightToeBase
                {
                    OFFSET -0.000000 -5.735999 13.236923
                    CHANNELS 3 Zrotation Xrotation Yrotation
                    End Site
                    {
                        OFFSET -0.000000 0.000000 3.529846
                    }
                }
            }
        }
    }
}
MOTION
Frames:    8
Frame Time:    0.008333
-5.700419    84.742416    101.555458    -1.868601    -3.221844    -166.976624    -1.265768    -12.881209    -0.390172    1.021224    9.784119    -0.334822    1.175783    8.099511    -3.577301    5.142369    -6.425054    -2.796878    -0.399533    19.458971    -4.152525    -42.880894    45.712399    -41.701290    -0.750756    -10.536312    -16.236422    18.381351    -9.707462    5.860452    9.576234    21.482634    -5.909361    43.300907    42.569038    31.302326    -4.525357    -8.999444    19.535152    -18.707342    -7.764597    -2.845229    3.782515    -6.431308    -8.159682    0.665918    12.060070    0.227911    -8.573313    -7.024089    -11.777390    0.136016    -0.467598    -0.150897    -7.478069    5.805078    -11.469850    1.120864    2.826818    -6.262152    4.360252    -5.847698    -13.082301    -1.944530    -0.084640    2.103371    
-5.691521    84.739914    101.539024    -1.864686    -3.214959    -166.992523    -1.274079    -12.888692    -0.393356    0.998887    9.764349    -0.334782    1.180152    8.106648    -3.579535    5.148109    -6.427628    -2.798213    -0.393792    19.478889    -4.132315    -42.991619    45.648098    -41.620747    -0.725115    -10.453522    -16.026869    18.310328    -9.625611    5.845258    9.577031    21.498734    -5.921691    43.347736    42.591743    31.197817    -4.522398    -8.962171    19.593372    -18.529818    -7.726503    -2.865974    3.794356    -6.410758    -8.188169    0.663044    12.056819    0.280042    -8.574123    -7.030045    -11.783381    0.131559    -0.452939    -0.145948    -7.466083    5.819036    -11.438051    1.123031    2.824505    -6.265244    4.353392    -5.859004    -13.094055    -1.943260    -0.085068    2.101998    
-5.682720    84.737450    101.522743    -1.860807    -3.208153    -167.008453    -1.282606    -12.896157    -0.396553    0.977255    9.744960    -0.334824    1.184423    8.113627    -3.581651    5.153475    -6.430746    -2.799466    -0.388381    19.498657    -4.112129    -43.103859    45.582253    -41.538769    -0.699573    -10.371058    -15.818975    18.238609    -9.544387    5.829034    9.577456    21.514811    -5.934037    43.394196    42.613930    31.094061    -4.520537    -8.925381    19.649994    -18.354473    -7.688692    -2.887355    3.806010    -6.390496    -8.216548    0.660250    12.053877    0.332126    -8.575178    -7.035985    -11.789478    0.127007    -0.438748    -0.140895    -7.454201    5.832818    -11.406376    1.125083    2.822284    -6.268330    4.346654    -5.870241    -13.105721    -1.941991    -0.085763    2.100629    
-5.674075    84.734985    101.506615    -1.856904    -3.201342    -167.024368    -1.291248    -12.903641    -0.399551    0.956506    9.726291    -0.335179    1.188676    8.119744    -3.583586    5.158208    -6.434134    -2.800664    -0.383308    19.518595    -4.091604    -43.218506    45.513573    -41.454479    -0.674421    -10.289285    -15.614012    18.165434    -9.464402    5.810839    9.577499    21.530682    -5.946447    43.440613    42.634075    30.990767    -4.519695    -8.888638    19.703760    -18.183086    -7.650728    -2.909232    3.817457    -6.370578    -8.244423    0.657634    12.051368    0.384095    -8.576713    -7.041754    -11.796015    0.122406    -0.425312    -0.135787    -7.442432    5.846508    -11.374653    1.127147    2.820023    -6.271519    4.340010    -5.881343    -13.117349    -1.940827    -0.086076    2.099370    
-5.665617    84.732506    101.490631    -1.853019    -3.194527    -167.040451    -1.300348    -12.911055    -0.402779    0.937156    9.708364    -0.335386    1.192456    8.125611    -3.585392    5.162710    -6.438982    -2.801647    -0.379115    19.538334    -4.070864    -43.338306    45.440605    -41.364967    -0.649353    -10.208350    -15.412094    18.089209    -9.385980    5.789749    9.577172    21.546631    -5.959155    43.486763    42.651585    30.887930    -4.520598    -8.852138    19.753597    -18.015774    -7.612710    -2.931825    3.828484    -6.351174    -8.271667    0.655493    12.049777    0.435655    -8.578966    -7.047601    -11.802776    0.117654    -0.412949    -0.130513    -7.430762    5.860090    -11.342992    1.129047    2.817733    -6.274946    4.333589    -5.892275    -13.128593    -1.939646    -0.086613    2.098094    
-5.657453    84.730064    101.474976    -1.849060    -3.187778    -167.056625    -1.309683    -12.918270    -0.405828    0.919561    9.691463    -0.335794    1.195840    8.130618    -3.587001    5.166576    -6.445079    -2.802485    -0.375948    19.557947    -4.049492    -43.463131    45.362591    -41.270210    -0.624668    -10.129282    -15.215707    18.009119    -9.310288    5.765168    9.576271    21.562094    -5.972228    43.532639    42.665897    30.786129    -4.523268    -8.816344    19.798077    -17.854307    -7.575202    -2.954574    3.839208    -6.332600    -8.297914    0.653562    12.049169    0.486920    -8.581906    -7.053272    -11.810246    0.112844    -0.401798    -0.125174    -7.419249    5.873382    -11.311303    1.130866    2.815409    -6.278582    4.327451    -5.902905    -13.139649    -1.938609    -0.087152    2.096975    
-5.649604    84.727631    101.459610    -1.845085    -3.181003    -167.073013    -1.319410    -12.925323    -0.408904    0.903781    9.675693    -0.336177    1.198581    8.134604    -3.588484    5.170208    -6.452423    -2.803166    -0.373861    19.577396    -4.027257    -43.595245    45.277889    -41.168056    -0.600343    -10.052177    -15.024801    17.923193    -9.237687    5.736222    9.574568    21.577120    -5.985576    43.578907    42.675907    30.684536    -4.527157    -8.781281    19.836811    -17.697399    -7.538407    -2.977203    3.849384    -6.314904    -8.322775    0.652299    12.050024    0.536996    -8.585832    -7.059080    -11.817911    0.107882    -0.392105    -0.119668    -7.407899    5.886432    -11.279708    1.132495    2.813090    -6.282648    4.321652    -5.913236    -13.150037    -1.937674    -0.087316    2.095964    
-5.642099    84.725189    101.444504    -1.841045    -3.174148    -167.089706    -1.329463    -12.932099    -0.411819    0.889919    9.661015    -0.336506    1.200663    8.137514    -3.589990    5.173650    -6.460835    -2.803815    -0.372964    19.596607    -4.003958    -43.736275    45.185249    -41.057060    -0.576006    -9.977654    -14.839407    17.829376    -9.168887    5.702318    9.572152    21.592031    -5.999641    43.625252    42.680954    30.583456    -4.531652    -8.747506    19.869364    -17.543505    -7.503170    -2.998946    3.858985    -6.298118    -8.345833    0.651832    12.052481    0.585846    -8.590615    -7.065020    -11.826036    0.102909    -0.383530    -0.114150    -7.396708    5.899350    -11.247867    1.134006    2.810668    -6.287070    4.316246    -5.923258    -13.160073    -1.936841    -0.087566    2.095064    
